# xmcd
#
# Track frame offsets:
#	150
#	16278
#	36006
#	53709
#	70287
#	91815
#
# Disc length: 1535 seconds
#
# Revision: 1
# Processed by: cddbd v1.5.2PL0 Copyright (c) Steve Scherf et al.
# Submitted via: audiograbber 1.83.01
#
DISCID=4205fd06
DTITLE=Zombstone - Struggle
DYEAR=1009
DGENRE=Hardcore
TTITLE0=We won't pray
TTITLE1=Culture of the broken skulls
TTITLE2=Obliterate the remains
TTITLE3=No regret
TTITLE4=Tombstone
TTITLE5=Containers in flames
EXTD=
EXTT0=
EXTT1=
EXTT2=
EXTT3=
EXTT4=
EXTT5=
PLAYORDER=
